<?xml version="1.0" encoding="UTF-8"?>
<!DOCTYPE svg PUBLIC "-//W3C//DTD SVG 1.1//EN" "http://www.w3.org/Graphics/SVG/1.1/DTD/svg11.dtd">
<!-- Creator: CorelDRAW (Evaluation Version) -->
<svg xmlns="http://www.w3.org/2000/svg" xml:space="preserve" width="1.76461in" height="0.247335in" version="1.1" style="shape-rendering:geometricPrecision; text-rendering:geometricPrecision; image-rendering:optimizeQuality; fill-rule:evenodd; clip-rule:evenodd"
viewBox="0 0 1765.15 247.41"
 xmlns:xlink="http://www.w3.org/1999/xlink"
 xmlns:xodm="http://www.corel.com/coreldraw/odm/2003">
 <defs>
  <style type="text/css">
   <![CDATA[
    .str0 {stroke:#27D07E;stroke-width:10.42;stroke-miterlimit:2.61313;stroke-dasharray:52.102540 52.102540}
    .fil1 {fill:none}
    .fil0 {fill:#27D07E;fill-rule:nonzero}
   ]]>
  </style>
 </defs>
 <g id="Layer_x0020_1">
  <metadata id="CorelCorpID_0Corel-Layer"/>
  <g id="_2631179796464">
   <polygon class="fil0" points="56.13,243.07 -0,4.33 49.68,4.33 85.19,168.33 128.76,4.33 186.23,4.33 227.9,171.11 264.25,4.33 312.76,4.33 255.25,243.07 203.62,243.07 156.55,64.57 109.14,243.07 "/>
   <path id="_1" class="fil0" d="M338.05 243.07l0 -238.74 77.3 0c29.29,0 48.35,1.17 57.24,3.56 13.67,3.61 25.12,11.39 34.35,23.39 9.22,12 13.83,27.51 13.83,46.51 0,14.67 -2.67,26.95 -7.95,36.96 -5.33,10 -12.06,17.84 -20.23,23.56 -8.17,5.67 -16.51,9.45 -24.95,11.28 -11.5,2.28 -28.12,3.45 -49.91,3.45l-31.34 0 0 90.03 -48.35 0zm48.35 -198.4l0 68.02 26.29 0c18.95,0 31.56,-1.28 37.96,-3.78 6.39,-2.5 11.39,-6.39 15,-11.78 3.61,-5.34 5.45,-11.5 5.45,-18.62 0,-8.73 -2.56,-15.89 -7.61,-21.56 -5.12,-5.67 -11.5,-9.23 -19.34,-10.67 -5.73,-1.06 -17.23,-1.61 -34.57,-1.61l-23.18 0z"/>
   <path id="_2" class="fil0" d="M560.45 4.33l95.47 0c18.95,0 33.01,0.78 42.29,2.34 9.34,1.61 17.62,4.89 24.95,9.84 7.34,5 13.45,11.61 18.34,19.9 4.89,8.28 7.34,17.62 7.34,27.89 0,11.12 -3,21.4 -9,30.68 -6,9.33 -14.17,16.28 -24.45,20.95 14.5,4.28 25.62,11.5 33.46,21.73 7.78,10.23 11.67,22.23 11.67,36.07 0,10.89 -2.5,21.45 -7.56,31.73 -5.06,10.28 -11.95,18.51 -20.73,24.67 -8.72,6.11 -19.51,9.89 -32.34,11.34 -8,0.83 -27.4,1.39 -58.13,1.61l-81.3 0 0 -238.74zm48.35 39.68l0 55.02 31.57 0c18.73,0 30.4,-0.28 34.95,-0.83 8.23,-0.95 14.73,-3.78 19.45,-8.5 4.73,-4.72 7.06,-10.89 7.06,-18.56 0,-7.39 -2.06,-13.34 -6.11,-17.95 -4.06,-4.61 -10.11,-7.39 -18.12,-8.34 -4.78,-0.56 -18.51,-0.83 -41.12,-0.83l-27.68 0zm0 94.69l0 64.02 44.68 0c17.34,0 28.4,-0.5 33.07,-1.45 7.17,-1.33 13,-4.5 17.51,-9.56 4.5,-5.11 6.78,-11.83 6.78,-20.34 0,-7.23 -1.72,-13.28 -5.23,-18.29 -3.45,-5 -8.5,-8.67 -15.06,-10.95 -6.56,-2.28 -20.84,-3.45 -42.79,-3.45l-38.96 0z"/>
   <polygon id="_3" class="fil0" points="802.58,243.07 802.58,6.33 850.93,6.33 850.93,202.73 970.64,202.73 970.64,243.07 "/>
   <path id="_4" class="fil0" d="M994.92 125.15c0,-24.34 3.67,-44.79 10.95,-61.35 5.39,-12.17 12.83,-23.12 22.23,-32.79 9.39,-9.67 19.67,-16.84 30.84,-21.56 14.89,-6.28 32.06,-9.45 51.52,-9.45 35.23,0 63.35,10.95 84.53,32.79 21.12,21.9 31.68,52.3 31.68,91.25 0,38.62 -10.5,68.86 -31.45,90.64 -20.95,21.84 -49.01,32.73 -84.08,32.73 -35.51,0 -63.8,-10.84 -84.75,-32.57 -20.95,-21.68 -31.45,-51.57 -31.45,-89.7zm49.68 -1.61c0,27.06 6.28,47.57 18.79,61.57 12.5,13.95 28.39,20.95 47.62,20.95 19.28,0 35.07,-6.95 47.46,-20.79 12.34,-13.89 18.51,-34.68 18.51,-62.4 0,-27.4 -6,-47.85 -18.06,-61.3 -12,-13.5 -27.95,-20.23 -47.9,-20.23 -19.9,0 -35.96,6.84 -48.12,20.45 -12.17,13.67 -18.29,34.23 -18.29,61.74z"/>
   <path id="_5" class="fil0" d="M1375.32 155.38l0 -40.35 103.7 0 0 95.25c-10.06,9.84 -24.67,18.45 -43.84,25.95 -19.12,7.45 -38.52,11.17 -58.19,11.17 -24.95,0 -46.68,-5.23 -65.24,-15.73 -18.51,-10.5 -32.45,-25.56 -41.79,-45.07 -9.34,-19.51 -14,-40.79 -14,-63.74 0,-24.9 5.22,-47.02 15.62,-66.41 10.45,-19.34 25.68,-34.23 45.74,-44.57 15.34,-7.95 34.34,-11.89 57.13,-11.89 29.62,0 52.8,6.22 69.47,18.67 16.62,12.5 27.34,29.67 32.12,51.68l-48.01 9.01c-3.33,-11.73 -9.67,-21.01 -18.95,-27.84 -9.22,-6.78 -20.78,-10.17 -34.68,-10.17 -21.01,0 -37.74,6.67 -50.13,20.07 -12.39,13.39 -18.62,33.23 -18.62,59.52 0,28.39 6.28,49.68 18.84,63.85 12.61,14.17 29.06,21.29 49.46,21.29 10.06,0 20.17,-2 30.29,-5.95 10.17,-3.95 18.84,-8.78 26.12,-14.45l0 -30.28 -55.02 0z"/>
   <ellipse class="fil1 str0" cx="1641.62" cy="123.7" rx="120.7" ry="115.62"/>
  </g>
 </g>
</svg>
